<svg width="25" height="24" viewBox="0 0 25 24" fill="none" xmlns="http://www.w3.org/2000/svg">
<g id="solar:phone-outline" clip-path="url(#clip0_257_4937)">
<path id="Vector" fill-rule="evenodd" clip-rule="evenodd" d="M2.73303 4.0433C3.95003 2.8333 5.95403 3.0483 6.97303 4.4103L8.23503 6.0943C9.06503 7.2023 8.99103 8.7503 8.00603 9.7293L7.76803 9.9673C7.74115 10.0672 7.73841 10.1721 7.76003 10.2733C7.82303 10.6813 8.16403 11.5453 9.59203 12.9653C11.02 14.3853 11.89 14.7253 12.304 14.7893C12.4082 14.8115 12.5162 14.8084 12.619 14.7803L13.027 14.3743C13.903 13.5043 15.247 13.3413 16.331 13.9303L18.241 14.9703C19.878 15.8583 20.291 18.0823 18.951 19.4153L17.53 20.8273C17.082 21.2723 16.48 21.6433 15.746 21.7123C13.936 21.8813 9.71903 21.6653 5.28603 17.2583C1.14903 13.1443 0.355027 9.5563 0.254027 7.7883C0.204027 6.8943 0.626027 6.1383 1.16403 5.6043L2.73303 4.0433ZM5.77303 5.3093C5.26603 4.6323 4.32203 4.5783 3.79003 5.1073L2.22003 6.6673C1.89003 6.9953 1.73203 7.3573 1.75203 7.7033C1.83203 9.1083 2.47203 12.3453 6.34403 16.1953C10.406 20.2333 14.157 20.3543 15.607 20.2183C15.903 20.1913 16.197 20.0373 16.472 19.7643L17.892 18.3513C18.47 17.7773 18.343 16.7313 17.525 16.2873L15.615 15.2483C15.087 14.9623 14.469 15.0563 14.085 15.4383L13.63 15.8913L13.1 15.3593C13.63 15.8913 13.628 15.8923 13.628 15.8923L13.627 15.8943L13.624 15.8973L13.617 15.9033L13.602 15.9173C13.5595 15.9561 13.514 15.9915 13.466 16.0233C13.386 16.0763 13.28 16.1353 13.147 16.1843C12.877 16.2853 12.519 16.3393 12.077 16.2713C11.21 16.1383 10.061 15.5473 8.53403 14.0293C7.00803 12.5113 6.41203 11.3693 6.27803 10.5033C6.20903 10.0613 6.26403 9.7033 6.36603 9.4333C6.42259 9.28156 6.50293 9.13979 6.60403 9.0133L6.63603 8.9783L6.65003 8.9633L6.65603 8.9573L6.65903 8.9543L6.66103 8.9523L6.94903 8.6663C7.37703 8.2393 7.43703 7.5323 7.03403 6.9933L5.77303 5.3093Z" fill="#0B6532"/>
</g>
<defs>
<clipPath id="clip0_257_4937">
<rect width="24" height="24" fill="white" transform="translate(0.75)"/>
</clipPath>
</defs>
</svg>
